# xmcd CD database file
#
# Track frame offsets:
#	225
#	8151
#	15930
#	23252
#	28726
#	42363
#	52542
#	58771
#	69279
#	78970
#	89471
#	104288
#	115720
#	130225
#	146508
#	158160
#
# Disc length: 2144 seconds
#
# Revision: 0
# Processed by: cddbd v1.5.2PL0 Copyright (c) Steve Scherf et al.
# Submitted via: CDex 1.70beta2
#
DISCID=b5085d10
DTITLE=Vladimir Löbl - Classic Moods (Querflötentrio)
DYEAR=2007
DGENRE=Playalong
TTITLE0=Wiegenlied (Franz Schubert)
TTITLE1=Walzer Nr.15 (Johannes Brahms)
TTITLE2=Bagatelle (Ludwig van Beethoven)
TTITLE3=Slawischer Tanz nr.3 (Antonin Dvorák)
TTITLE4=Melodie In F (Anton Rubinstein)
TTITLE5=Liebestraum (Franz Liszt)
TTITLE6=Das klinget so herrlich (aus 'Die Zauberflöte', W.A. Mozart)
TTITLE7=Poem (Zdenek Fibich)
TTITLE8=Romanze (Peter I. Tschaikowsky)
TTITLE9=Die Moldau (Bedrich Smetana)
TTITLE10=Lied ohne Worte (Felix Mendelssohn-Bartholdy)
TTITLE11=Siciliane (aus 'Suite pour Pelléas et Mélisande', Gabriel Fauré)
TTITLE12=Träumerei (aus 'Kinderszenen', Robert Schumann)
TTITLE13=Gefangenen-Chor (aus 'Nabucco', Guiseppe Verdi)
TTITLE14=Letzter Frühling (Edvard Grieg)
TTITLE15=Stimmton a'
EXTD=YEAR: 2007
EXTT0=
EXTT1=
EXTT2=
EXTT3=
EXTT4=
EXTT5=
EXTT6=
EXTT7=
EXTT8=
EXTT9=
EXTT10=
EXTT11=
EXTT12=
EXTT13=
EXTT14=
EXTT15=
PLAYORDER=
